:SAMPLES-PER-SECOND 30
:FULLY-SPECIFIED
:DEGREES
33
root  4.66208 40.019 2.017 -171.355 -87.2562 175.496
RightUpLeg  -6.55502 -9.89518 -10.6341
RightLeg  2.37385 4.41925 0.461481
RightFoot  2.68063 -1.65803 13.5756
RightToes  -1.28057e-009 0 -3.6325e-017
Spine  -4.20183 0.271386 2.21883
Spine1  6.38281 0.606192 -2.21682
HEad  -8.83776 -12.9277 6.35226
LeftShoulder1  1.90061 -6.1454 -12.6499
LeftArm  52.7434 25.2542 -39.1763
LeftForeArm  97.5703 -79.3691 -48.5639
LeftHand  0.018667 5.37883 46.6009
RightShoulder  1.44432 2.98005 15.5585
RightArm  52.9753 -24.4972 31.3108
RightForeArm  97.545 80.1576 57.773
RightHand  -3.83533 5.6843 -38.979
LeftUpLeg  -3.38931 10.4734 9.93109
LeftLeg  2.86619 5.58699 1.5552
LeftFoot  0.144156 1.40782 -13.967
LeftToes  -7.27922e-012 9.28972e-011 -9.04533e-012
34
root  4.6602 40.0187 2.02825 -170.783 -87.2371 174.924
RightUpLeg  -6.54673 -9.91543 -10.6798
RightLeg  2.34738 4.45408 0.458346
RightFoot  2.69296 -1.65935 13.5778
RightToes  -1.28057e-009 0 -3.6325e-017
Spine  -4.17423 0.275175 2.25422
Spine1  6.32413 0.636165 -2.33932
HEad  -8.49321 -12.9577 6.34845
LeftShoulder1  1.88736 -6.11032 -12.577
LeftArm  52.7467 25.2067 -39.2196
LeftForeArm  97.319 -79.3324 -48.3433
LeftHand  0.00185832 5.33967 46.4578
RightShoulder  1.45726 3.0012 15.6971
RightArm  52.9973 -24.4877 31.2097
RightForeArm  97.6246 80.1642 57.933
RightHand  -3.80951 5.62215 -38.9382
LeftUpLeg  -3.3855 10.4698 9.89233
LeftLeg  2.87462 5.60182 1.53388
LeftFoot  0.130439 1.40487 -13.9506
LeftToes  -7.27922e-012 9.28972e-011 -9.04533e-012
35
root  4.65814 40.0184 2.03834 -170.535 -87.1822 174.672
RightUpLeg  -6.55738 -9.89143 -10.6925
RightLeg  2.34212 4.48401 0.419904
RightFoot  2.6991 -1.66239 13.6049
RightToes  -1.28057e-009 0 -3.6325e-017
Spine  -4.22608 0.300186 2.29383
Spine1  6.44555 0.685788 -2.44259
HEad  -8.31815 -13.0716 6.39288
LeftShoulder1  1.87653 -6.08141 -12.5176
LeftArm  52.6692 25.1667 -39.2929
LeftForeArm  97.1356 -79.3057 -48.1852
LeftHand  0.00507614 5.3473 46.4204
RightShoulder  1.46833 3.02103 15.8095
RightArm  52.9579 -24.4402 31.1708
RightForeArm  97.5906 80.1704 58.0409
RightHand  -3.77563 5.54712 -38.8631
LeftUpLeg  -3.36358 10.4911 9.87602
LeftLeg  2.88174 5.62998 1.50031
LeftFoot  0.109801 1.39976 -13.9116
LeftToes  -7.27922e-012 9.28972e-011 -9.04533e-012
36
root  4.65717 40.0181 2.05137 -169.779 -87.1709 173.901
RightUpLeg  -6.55521 -9.90078 -10.7451
RightLeg  2.36069 4.50837 0.391274
RightFoot  2.68578 -1.66701 13.6625
RightToes  -1.28057e-009 0 -3.6325e-017
Spine  -4.30393 0.319951 2.31213
Spine1  6.65963 0.726147 -2.51248
HEad  -8.32354 -13.2399 6.42559
LeftShoulder1  1.87279 -6.08177 -12.474
LeftArm  52.5231 25.1589 -39.4069
LeftForeArm  97.0084 -79.2824 -48.0362
LeftHand  -0.00106813 5.33271 46.4968
RightShoulder  1.46908 3.00743 15.8622
RightArm  52.9033 -24.4071 31.1823
RightForeArm  97.4811 80.1743 58.0724
RightHand  -3.74164 5.41613 -38.9704
LeftUpLeg  -3.35019 10.4887 9.82838
LeftLeg  2.8984 5.63836 1.47367
LeftFoot  0.0856374 1.39193 -13.8639
LeftToes  -7.27922e-012 9.28972e-011 -9.04533e-012
37
root  4.65804 40.0179 2.06396 -168.771 -87.2132 172.882
RightUpLeg  -6.54751 -9.94482 -10.8192
RightLeg  2.39124 4.51312 0.39097
RightFoot  2.66113 -1.66916 13.6951
RightToes  -1.28057e-009 0 -3.6325e-017
Spine  -4.34929 0.323229 2.29134
Spine1  6.81772 0.739978 -2.53377
HEad  -8.37044 -13.4089 6.4206
LeftShoulder1  1.87431 -6.1093 -12.4275
LeftArm  52.3435 25.2042 -39.5573
LeftForeArm  96.9643 -79.2689 -47.9389
LeftHand  -0.0399598 5.24116 46.5064
RightShoulder  1.47106 2.98528 15.9402
RightArm  52.9019 -24.3996 31.0745
RightForeArm  97.6923 80.2025 58.3977
RightHand  -3.72026 5.28122 -39.2151
LeftUpLeg  -3.38648 10.4916 9.775
LeftLeg  2.9683 5.59891 1.43916
LeftFoot  0.0443743 1.38071 -13.8018
LeftToes  -7.27922e-012 9.28972e-011 -9.04533e-012
38
root  4.65871 40.0177 2.07275 -168.065 -87.2744 172.177
RightUpLeg  -6.55298 -9.98055 -10.866
RightLeg  2.42834 4.48479 0.399613
RightFoot  2.6465 -1.66574 13.665
RightToes  -1.28057e-009 0 -3.6325e-017
Spine  -4.42155 0.314844 2.23659
Spine1  6.96795 0.726207 -2.48777
HEad  -8.37115 -13.4993 6.40887
LeftShoulder1  1.875 -6.13524 -12.3794
LeftArm  52.1528 25.2579 -39.699
LeftForeArm  97.1157 -79.2925 -48.081
LeftHand  -0.0930197 5.11607 46.4309
RightShoulder  1.46977 2.97144 16.025
RightArm  52.8991 -24.3679 30.9076
RightForeArm  98.1902 80.2544 58.9171
RightHand  -3.73288 5.26945 -39.3772
LeftUpLeg  -3.45826 10.5101 9.74572
LeftLeg  3.06731 5.53537 1.40284
LeftFoot  -0.00371065 1.37012 -13.7416
LeftToes  -7.27922e-012 9.28972e-011 -9.04533e-012
39
root  4.657 40.0175 2.08459 -166.659 -87.3695 170.765
RightUpLeg  -6.53251 -10.0597 -10.9581
RightLeg  2.47047 4.46097 0.427165
RightFoot  2.63391 -1.65887 13.6234
RightToes  -1.28057e-009 0 -3.6325e-017
Spine  -4.58539 0.287609 2.16152
Spine1  7.23693 0.687347 -2.4095
HEad  -8.38434 -13.5058 6.43101
LeftShoulder1  1.87121 -6.11228 -12.3869
LeftArm  51.9901 25.2249 -39.7451
LeftForeArm  97.4546 -79.3583 -48.5151
LeftHand  -0.138806 5.00794 46.4006
RightShoulder  1.45783 2.92515 15.9981
RightArm  52.7876 -24.2952 30.9377
RightForeArm  98.4671 80.2722 59.0183
RightHand  -3.78563 5.4096 -39.413
LeftUpLeg  -3.49459 10.4467 9.66205
LeftLeg  3.09632 5.49404 1.41759
LeftFoot  -0.0142464 1.37091 -13.7316
LeftToes  -7.27922e-012 9.28972e-011 -9.04533e-012
